# xmcd CD database file generated by Grip 2.94
# 
# Track frame offsets:
#       200
#       15282
#       29400
#       40795
#       64210
#       81185
#       99597
#       114917
#       128902
#       151975
#       164737
#       176057
# 
# Disc length: 2527 seconds
# 
# Revision: 3
# Processed by: cddbd v1.4b41PL1 Copyright (c) Steve Scherf et al.
# Submitted via: Grip 2.94
# 
DISCID=9409dd0c
DTITLE=Blue Highway - Wind To The West
DYEAR=1900
DGENRE=
TTITLE0=Wind To The West
TTITLE1=Howling Wind
TTITLE2=I Can Stand The Truth
TTITLE3=Good Time Blues
TTITLE4=Two Coats
TTITLE5=The Rounder
TTITLE6=I Let A Good Woman Go
TTITLE7=Clear Cut
TTITLE8=God Moves In A Windstorm
TTITLE9=Horseshoe Bend
TTITLE10=West Virginia's Last Hand Loader
TTITLE11=Huntsville
EXTD=
EXTT0=
EXTT1=
EXTT2=
EXTT3=
EXTT4=
EXTT5=
EXTT6=
EXTT7=
EXTT8=
EXTT9=
EXTT10=
EXTT11=
PLAYORDER=
